# xmcd CD database file
#
# Track frame offsets:
#	150
#	21555
#	37897
#	54280
#	74202
#	93632
#	118562
#	133562
#	151555
#	166970
#
# Disc length: 2523 seconds
#
# Revision: 0
# Processed by: cddbd v1.5PL3 Copyright (c) Steve Scherf et al.
# Submitted via: CDex 1.51
#
DISCID=8009d90a
DTITLE=Sandii and THE Sunsetz - Immigrants
DYEAR=1982
DGENRE=Pop
TTITLE0=Dream Of Immigrants
TTITLE1=Open Sesame
TTITLE2=Living On The Front Line
TTITLE3=The Mirrors Of Eyes
TTITLE4=You Get What You Need
TTITLE5=Jinjirogeh ? The Chunk O' Funk
TTITLE6=Perfect Strangers
TTITLE7=Illusion
TTITLE8=Wanted
TTITLE9=Where The Fire Still Burns
EXTD=YEAR: 1982
EXTT0=
EXTT1=
EXTT2=
EXTT3=
EXTT4=
EXTT5=
EXTT6=
EXTT7=
EXTT8=
EXTT9=
PLAYORDER=
